<svg width="294" height="69" viewBox="0 0 294 69" fill="none" xmlns="http://www.w3.org/2000/svg">
<path d="M40.48 7.592C40.416 7.656 40.32 7.816 40.192 8.07199C40.128 8.328 40.096 8.776 40.096 9.41599C40.096 10.312 40.224 11.176 40.48 12.008V43.784C40.48 47.048 40.16 50.184 39.52 53.192C38.88 56.2 37.76 58.888 36.16 61.256C34.624 63.56 32.48 65.384 29.728 66.728C27.04 68.136 23.584 68.84 19.36 68.84H18.112C14.464 68.84 11.488 68.328 9.184 67.304C6.944 66.344 5.184 65.096 3.904 63.56C2.624 62.024 1.76 60.36 1.312 58.568C0.864 56.712 0.64 54.952 0.64 53.288C0.64 51.88 0.832 50.536 1.216 49.256C1.536 47.912 2.048 46.76 2.752 45.8C3.392 44.776 4.192 43.976 5.152 43.4C6.112 42.76 7.2 42.44 8.416 42.44C9.568 42.44 10.304 42.76 10.624 43.4C10.944 43.976 11.104 44.584 11.104 45.224C11.104 46.632 10.816 47.816 10.24 48.776C9.664 49.672 9.024 50.472 8.32 51.176C7.68 51.88 7.072 52.584 6.496 53.288C5.92 53.992 5.632 54.856 5.632 55.88C5.632 58.952 6.656 61.16 8.704 62.504C10.752 63.848 13.312 64.52 16.384 64.52C19.072 64.52 21.408 63.976 23.392 62.888C25.376 61.8 27.008 60.424 28.288 58.76C29.632 57.096 30.624 55.304 31.264 53.384C31.904 51.4 32.224 49.544 32.224 47.816L30.784 47.912C28.48 47.912 26.464 47.4 24.736 46.376C23.072 45.288 21.664 43.944 20.512 42.344C19.424 40.744 18.592 39.016 18.016 37.16C17.504 35.304 17.248 33.576 17.248 31.976V28.616C17.248 27.4 17.408 25.992 17.728 24.392C18.048 22.728 18.496 21.032 19.072 19.304C19.648 17.512 20.352 15.784 21.184 14.12C22.016 12.392 22.912 10.856 23.872 9.512C24.832 8.168 25.856 7.08 26.944 6.248C28.032 5.416 29.152 5 30.304 5C30.752 5 31.264 5.096 31.84 5.288L38.56 5.768C39.008 5.832 39.424 5.99199 39.808 6.248C40.256 6.504 40.48 6.952 40.48 7.592ZM32.224 19.112C32.352 18.6 32.48 18.12 32.608 17.672C32.736 17.224 32.8 16.712 32.8 16.136C32.8 15.304 32.576 14.568 32.128 13.928C31.744 13.224 31.008 12.872 29.92 12.872C28.512 12.872 27.36 13.448 26.464 14.6C25.568 15.752 24.864 17.128 24.352 18.728C23.904 20.328 23.584 21.992 23.392 23.72C23.2 25.448 23.104 26.856 23.104 27.944C23.104 28.776 23.168 29.992 23.296 31.592C23.424 33.128 23.712 34.664 24.16 36.2C24.672 37.736 25.344 39.08 26.176 40.232C27.072 41.384 28.256 41.96 29.728 41.96C29.856 41.96 30.208 41.928 30.784 41.864C31.424 41.8 31.904 41.704 32.224 41.576V19.112ZM62.5053 44.072C61.5453 45.416 60.7453 46.92 60.1053 48.584C59.5293 50.184 59.0173 51.88 58.5693 53.672C58.1213 55.4 57.7373 57.16 57.4173 58.952C57.1613 60.68 56.8733 62.344 56.5533 63.944C56.4253 64.328 55.9133 64.584 55.0173 64.712C54.1853 64.84 53.5773 64.904 53.1933 64.904C52.0413 64.904 51.0813 64.84 50.3133 64.712C49.6093 64.584 49.0653 64.296 48.6813 63.848C48.2973 63.336 48.0093 62.6 47.8173 61.64C47.6253 60.616 47.4653 59.272 47.3373 57.608L48.5853 29.096C48.5853 28.264 49.0333 27.848 49.9293 27.848C50.2493 27.848 50.6973 27.912 51.2733 28.04C51.8493 28.104 52.4573 28.232 53.0973 28.424C53.7373 28.616 54.2813 28.872 54.7293 29.192C55.1773 29.448 55.4013 29.768 55.4013 30.152V49.64C55.4653 49.576 55.5613 49.32 55.6893 48.872C56.1373 47.72 56.6813 46.312 57.3213 44.648C57.9613 42.92 58.6653 41.288 59.4333 39.752C60.2013 38.216 61.0013 36.904 61.8333 35.816C62.7293 34.728 63.6253 34.184 64.5213 34.184C65.6733 34.184 66.5373 34.472 67.1133 35.048C67.7533 35.56 68.2333 36.232 68.5533 37.064C68.8733 37.896 69.0653 38.792 69.1293 39.752C69.1933 40.712 69.2253 41.64 69.2253 42.536C69.2253 43.176 69.1613 44.232 69.0333 45.704C68.9053 47.176 68.8413 49.384 68.8413 52.328C68.8413 53.992 69.0013 55.496 69.3213 56.84C69.6413 58.184 70.2813 58.856 71.2413 58.856C71.9453 58.856 72.5853 58.536 73.1613 57.896C73.7373 57.256 74.2493 56.456 74.6973 55.496C75.2093 54.536 75.6253 53.512 75.9453 52.424C76.2653 51.336 76.4573 50.312 76.5213 49.352C76.5853 48.136 77.0653 47.528 77.9613 47.528C78.5373 47.528 78.9213 47.72 79.1133 48.104C79.3053 48.488 79.4013 48.936 79.4013 49.448V49.64C79.3373 50.92 79.0813 52.36 78.6333 53.96C78.2493 55.56 77.6413 57.064 76.8093 58.472C76.0413 59.88 75.0173 61.064 73.7373 62.024C72.4573 62.984 70.8893 63.464 69.0333 63.464C66.1533 63.464 64.2973 62.44 63.4653 60.392C62.6973 58.28 62.3133 55.176 62.3133 51.08L62.5053 44.072ZM99.9153 59.048C99.9153 60.584 99.4033 61.768 98.3793 62.6C97.3553 63.432 96.1713 64.04 94.8273 64.424C93.5473 64.808 92.2353 65.032 90.8913 65.096C89.6113 65.224 88.6833 65.288 88.1073 65.288C87.2113 65.288 86.0913 65.192 84.7473 65C83.4673 64.808 82.1873 64.52 80.9073 64.136C79.6913 63.688 78.6353 63.08 77.7393 62.312C76.9073 61.544 76.4913 60.584 76.4913 59.432C76.4913 58.728 76.7473 58.248 77.2593 57.992C77.8353 57.672 78.3793 57.512 78.8913 57.512C79.5953 57.512 80.2673 57.768 80.9073 58.28C81.6113 58.792 82.3153 59.336 83.0193 59.912C83.7873 60.488 84.6193 61.032 85.5153 61.544C86.4113 62.056 87.4353 62.312 88.5873 62.312C89.0993 62.312 89.7713 62.152 90.6033 61.832C91.4993 61.448 91.9473 60.808 91.9473 59.912C91.9473 59.016 91.5633 58.152 90.7953 57.32C90.0913 56.488 89.1633 55.624 88.0113 54.728C86.9233 53.832 85.7393 52.904 84.4593 51.944C83.1793 50.984 81.9633 49.96 80.8113 48.872C79.7233 47.72 78.7953 46.472 78.0273 45.128C77.3233 43.784 76.9713 42.312 76.9713 40.712C76.9713 38.472 77.6753 36.584 79.0833 35.048C80.5553 33.512 82.2513 32.296 84.1713 31.4C86.1553 30.504 88.1713 29.864 90.2193 29.48C92.2673 29.096 93.8673 28.904 95.0193 28.904C96.1073 28.904 97.1953 29.128 98.2833 29.576C99.3713 30.024 99.9153 30.888 99.9153 32.168C99.9153 32.552 99.8193 33.128 99.6273 33.896C99.4993 34.6 99.2433 35.304 98.8593 36.008C98.5393 36.712 98.0913 37.352 97.5153 37.928C96.9393 38.44 96.2033 38.696 95.3073 38.696C95.0513 38.696 94.7953 38.6 94.5393 38.408C94.2833 38.152 93.9953 37.896 93.6753 37.64C93.3553 37.32 93.0033 37.064 92.6193 36.872C92.2993 36.616 91.9153 36.488 91.4673 36.488C89.2273 36.488 87.6593 37.16 86.7633 38.504C85.8673 39.784 85.4193 41.16 85.4193 42.632C85.4193 43.912 86.1553 45.256 87.6273 46.664C89.1633 48.072 90.8273 49.48 92.6193 50.888C94.4753 52.296 96.1393 53.704 97.6113 55.112C99.1473 56.456 99.9153 57.768 99.9153 59.048ZM101.983 47.624C102.047 44.36 102.143 41.032 102.271 37.64C102.399 34.248 102.527 31.112 102.655 28.232C102.655 27.72 102.143 27.368 101.119 27.176C100.095 26.984 98.943 26.792 97.663 26.6C96.383 26.408 95.231 26.12 94.207 25.736C93.183 25.288 92.671 24.584 92.671 23.624C92.671 22.792 93.503 22.312 95.167 22.184C96.831 22.056 99.295 21.992 102.559 21.992C102.815 21.992 102.975 21.608 103.039 20.84C103.167 20.072 103.231 19.112 103.231 17.96C103.295 16.744 103.327 15.464 103.327 14.12C103.391 12.776 103.455 11.528 103.519 10.376C103.583 9.16 103.679 8.168 103.807 7.4C103.999 6.632 104.223 6.248 104.479 6.248C104.799 6.248 105.375 6.312 106.207 6.44C107.039 6.568 107.903 6.76 108.799 7.016C109.695 7.208 110.463 7.464 111.103 7.784C111.807 8.104 112.159 8.456 112.159 8.84L111.103 21.32C111.103 21.704 111.423 21.992 112.063 22.184C112.767 22.312 113.631 22.408 114.655 22.472C115.743 22.472 116.863 22.472 118.015 22.472C119.231 22.472 120.351 22.568 121.375 22.76C122.463 22.952 123.327 23.272 123.967 23.72C124.671 24.104 125.023 24.712 125.023 25.544C125.023 25.672 124.959 25.896 124.831 26.216C124.703 26.472 124.543 26.6 124.351 26.6C124.223 26.6 124.031 26.504 123.775 26.312C123.583 26.12 123.007 26.024 122.047 26.024C121.791 26.024 121.087 26.056 119.935 26.12C118.783 26.184 117.567 26.28 116.287 26.408C115.007 26.536 113.823 26.696 112.735 26.888C111.711 27.016 111.135 27.208 111.007 27.464C110.943 27.592 110.847 28.36 110.719 29.768C110.655 31.112 110.559 32.904 110.431 35.144C110.367 37.384 110.303 39.976 110.239 42.92C110.175 45.8 110.143 48.84 110.143 52.04C110.143 53.256 110.207 54.44 110.335 55.592C110.463 56.744 110.655 57.8 110.911 58.76C111.167 59.656 111.487 60.392 111.871 60.968C112.319 61.544 112.831 61.832 113.407 61.832C114.239 61.832 115.007 61.48 115.711 60.776C116.415 60.072 117.055 59.112 117.631 57.896C118.207 56.68 118.719 55.304 119.167 53.768C119.615 52.232 119.999 50.664 120.319 49.064C120.511 48.104 120.735 47.432 120.991 47.048C121.247 46.6 121.631 46.376 122.143 46.376C122.591 46.376 122.975 46.536 123.295 46.856C123.679 47.112 123.871 47.752 123.871 48.776C123.871 49.416 123.839 49.832 123.775 50.024C123.583 51.176 123.199 52.776 122.623 54.824C122.111 56.808 121.375 58.792 120.415 60.776C119.519 62.696 118.399 64.392 117.055 65.864C115.711 67.336 114.143 68.072 112.351 68.072C110.623 68.072 109.119 67.56 107.839 66.536C106.559 65.576 105.471 64.232 104.575 62.504C103.743 60.712 103.103 58.632 102.655 56.264C102.207 53.832 101.983 51.24 101.983 48.488V47.624ZM158.952 54.536C158.824 55.432 158.504 56.488 157.992 57.704C157.48 58.92 156.808 60.104 155.976 61.256C155.208 62.344 154.28 63.272 153.192 64.04C152.168 64.808 151.016 65.192 149.736 65.192C147.816 65.192 146.12 64.456 144.648 62.984C143.24 61.512 142.376 59.432 142.056 56.744C141.672 57.768 141.224 58.952 140.712 60.296C140.2 61.64 139.56 62.888 138.792 64.04C138.024 65.192 137.128 66.152 136.104 66.92C135.144 67.752 133.992 68.168 132.648 68.168C132.264 68.168 131.976 68.136 131.784 68.072C131.592 68.008 131.368 67.912 131.112 67.784C130.92 67.72 130.664 67.656 130.344 67.592C130.088 67.528 129.704 67.496 129.192 67.496C127.656 67.496 126.344 66.984 125.256 65.96C124.232 65 123.4 63.752 122.76 62.216C122.12 60.68 121.64 59.016 121.32 57.224C121.064 55.368 120.936 53.64 120.936 52.04C120.936 48.2 121.128 44.552 121.512 41.096C121.96 37.64 122.664 34.6 123.624 31.976C124.584 29.288 125.832 27.176 127.368 25.64C128.904 24.04 130.76 23.24 132.936 23.24C134.216 23.24 135.176 23.368 135.816 23.624C136.52 23.816 137.16 24.072 137.736 24.392C138.312 24.648 138.92 24.936 139.56 25.256C140.264 25.576 141.224 25.832 142.44 26.024C143.784 26.792 144.712 27.72 145.224 28.808C145.8 29.832 146.152 30.952 146.28 32.168C146.472 33.384 146.536 34.664 146.472 36.008C146.408 37.288 146.472 38.568 146.664 39.848C146.664 39.912 146.792 40.008 147.048 40.136C147.368 40.264 147.72 40.424 148.104 40.616C148.488 40.744 148.808 40.968 149.064 41.288C149.384 41.544 149.544 41.896 149.544 42.344V42.728C148.904 44.392 148.52 45.864 148.392 47.144C148.264 48.424 148.2 49.96 148.2 51.752C148.2 52.648 148.232 53.64 148.296 54.728C148.424 55.752 148.584 56.744 148.776 57.704C149.032 58.6 149.384 59.368 149.832 60.008C150.28 60.584 150.856 60.872 151.56 60.872C152.328 60.872 153 60.488 153.576 59.72C154.216 58.952 154.728 58.088 155.112 57.128C155.56 56.104 155.912 55.08 156.168 54.056C156.488 53.032 156.68 52.264 156.744 51.752C156.872 50.984 157.192 50.6 157.704 50.6C158.024 50.6 158.312 50.792 158.568 51.176C158.888 51.496 159.048 52.104 159.048 53C159.048 53.256 159.048 53.512 159.048 53.768C159.048 53.96 159.016 54.216 158.952 54.536ZM141.192 38.984C141.192 38.28 141.128 37.448 141 36.488C140.872 35.528 140.648 34.632 140.328 33.8C140.008 32.968 139.528 32.264 138.888 31.688C138.248 31.112 137.384 30.824 136.296 30.824C134.504 30.824 133.032 31.656 131.88 33.32C130.792 34.92 129.928 36.84 129.288 39.08C128.648 41.256 128.232 43.528 128.04 45.896C127.848 48.2 127.752 50.024 127.752 51.368C127.752 52.392 127.784 53.64 127.848 55.112C127.976 56.52 128.168 57.864 128.424 59.144C128.68 60.424 129.032 61.512 129.48 62.408C129.992 63.304 130.632 63.752 131.4 63.752C133.256 63.752 134.664 63.048 135.624 61.64C136.648 60.168 137.416 58.376 137.928 56.264C138.44 54.088 138.792 51.784 138.984 49.352C139.24 46.856 139.464 44.584 139.656 42.536C139.784 41.448 140.072 40.776 140.52 40.52C140.968 40.2 141.192 39.976 141.192 39.848V38.984ZM184.611 56.36C183.075 60.008 181.091 62.664 178.659 64.328C176.291 65.928 173.475 66.728 170.211 66.728C169.891 66.728 169.571 66.728 169.251 66.728C168.995 66.728 168.707 66.696 168.387 66.632C166.787 66.44 165.251 65.928 163.779 65.096C162.307 64.328 161.027 63.24 159.939 61.832C158.851 60.36 157.987 58.6 157.347 56.552C156.707 54.44 156.387 52.04 156.387 49.352C156.387 46.792 156.707 44.104 157.347 41.288C158.051 38.472 159.427 35.912 161.475 33.608C163.267 31.56 165.347 29.928 167.715 28.712C170.147 27.496 172.611 26.888 175.107 26.888C176.323 26.888 177.411 27.08 178.371 27.464C179.395 27.784 179.97 28.2 180.099 28.712C180.227 29.416 180.291 30.312 180.291 31.4C180.355 32.424 180.387 33.8 180.387 35.528C180.387 37 180.259 38.088 180.003 38.792C179.811 39.496 179.363 39.848 178.659 39.848C177.891 39.784 177.347 39.4 177.027 38.696C176.707 37.928 176.387 37.128 176.067 36.296C175.747 35.4 175.331 34.6 174.819 33.896C174.307 33.128 173.475 32.712 172.323 32.648C170.659 32.648 169.283 33.288 168.195 34.568C167.107 35.848 166.243 37.352 165.603 39.08C165.027 40.808 164.611 42.536 164.355 44.264C164.163 45.992 164.067 47.336 164.067 48.296C164.067 52.008 164.611 55.208 165.699 57.896C166.851 60.52 168.867 61.96 171.747 62.216L172.803 62.312C174.787 62.312 176.387 61.832 177.603 60.872C178.819 59.848 179.779 58.76 180.483 57.608C181.251 56.392 181.827 55.304 182.211 54.344C182.659 53.32 183.107 52.808 183.555 52.808H183.843C184.675 52.872 185.091 53.416 185.091 54.44C185.091 54.888 184.931 55.528 184.611 56.36ZM204.363 62.216C204.363 62.984 204.075 63.656 203.499 64.232C202.987 64.808 202.315 65.32 201.483 65.768C200.715 66.216 199.883 66.536 198.987 66.728C198.155 66.984 197.451 67.112 196.875 67.112C195.787 67.112 194.571 66.984 193.227 66.728C191.947 66.536 190.859 66.088 189.963 65.384C188.939 64.552 188.075 63.24 187.371 61.448C186.731 59.592 186.219 57.416 185.835 54.92C185.515 52.36 185.291 49.544 185.163 46.472C185.035 43.336 184.971 40.072 184.971 36.68C184.971 35.272 185.003 33.704 185.067 31.976C185.195 30.248 185.323 28.456 185.451 26.6C185.579 24.68 185.739 22.792 185.931 20.936C186.123 19.016 186.315 17.192 186.507 15.464C186.699 14.248 186.923 12.936 187.179 11.528C187.435 10.12 187.691 8.776 187.947 7.496C188.267 6.216 188.619 5.064 189.003 4.04C189.387 3.016 189.803 2.28 190.251 1.832C190.763 1.32 191.435 0.999998 192.267 0.871996C193.163 0.679998 193.963 0.584 194.667 0.584C196.139 0.584 197.323 0.967999 198.219 1.736C199.115 2.504 199.787 3.56 200.235 4.904C200.747 6.184 201.067 7.688 201.195 9.41599C201.387 11.08 201.483 12.872 201.483 14.792C201.483 17.736 201.387 20.936 201.195 24.392C201.003 27.784 200.587 31.208 199.947 34.664C199.371 38.12 198.507 41.48 197.355 44.744C196.267 48.008 194.795 50.984 192.939 53.672C193.003 54.568 193.099 55.624 193.227 56.84C193.419 57.992 193.675 59.08 193.995 60.104C194.315 61.128 194.731 61.992 195.243 62.696C195.755 63.4 196.427 63.752 197.259 63.752C198.027 63.752 198.635 63.592 199.083 63.272C199.531 62.888 199.915 62.472 200.235 62.024C200.619 61.576 200.971 61.192 201.291 60.872C201.675 60.488 202.155 60.296 202.731 60.296C203.371 60.296 203.787 60.488 203.979 60.872C204.235 61.256 204.363 61.704 204.363 62.216ZM197.163 17.096C197.163 16.456 197.131 15.688 197.067 14.792C197.067 13.896 196.971 13.032 196.779 12.2C196.651 11.304 196.459 10.568 196.203 9.992C195.947 9.352 195.595 9.032 195.147 9.032C194.507 9.032 193.995 9.928 193.611 11.72C193.227 13.512 192.907 15.88 192.651 18.824C192.459 21.704 192.299 25 192.171 28.712C192.107 32.36 192.075 36.072 192.075 39.848C192.075 40.936 192.075 42.088 192.075 43.304C192.075 44.456 192.139 45.48 192.267 46.376C194.379 41.32 195.723 36.424 196.299 31.688C196.875 26.952 197.163 22.088 197.163 17.096ZM236.062 37.544C236.318 37.096 236.766 36.872 237.406 36.872C237.726 36.872 237.95 37.064 238.078 37.448C238.206 37.832 238.27 38.152 238.27 38.408C238.206 40.392 237.758 42.184 236.926 43.784C236.158 45.32 235.326 46.664 234.43 47.816C233.918 48.52 233.342 49.16 232.702 49.736C232.126 50.312 231.518 50.856 230.878 51.368C230.814 52.456 230.75 53.224 230.686 53.672C230.686 54.056 230.654 54.376 230.59 54.632C230.462 55.592 230.142 56.808 229.63 58.28C229.118 59.752 228.382 61.192 227.422 62.6C226.526 64.008 225.406 65.192 224.062 66.152C222.782 67.176 221.278 67.688 219.55 67.688C218.974 67.688 218.302 67.624 217.534 67.496C216.83 67.368 216.094 67.176 215.326 66.92C214.558 66.728 213.822 66.472 213.118 66.152C212.414 65.896 211.806 65.608 211.294 65.288C209.694 64.392 208.382 63.336 207.358 62.12C206.334 60.904 205.534 59.624 204.958 58.28C204.446 56.872 204.094 55.464 203.902 54.056C203.71 52.584 203.614 51.176 203.614 49.832C203.614 47.528 203.838 45.192 204.286 42.824C204.798 40.456 205.406 38.184 206.11 36.008C206.814 33.832 207.614 31.88 208.51 30.152C209.406 28.424 210.27 27.08 211.102 26.12C211.934 25.224 212.862 24.616 213.886 24.296C214.91 23.912 215.838 23.72 216.67 23.72C217.694 23.72 218.718 23.976 219.742 24.488C220.766 25 221.758 25.64 222.718 26.408C223.678 27.176 224.606 28.072 225.502 29.096C226.462 30.056 227.358 31.016 228.19 31.976C228.83 32.68 229.31 33.832 229.63 35.432C229.95 36.968 230.206 38.536 230.398 40.136C230.526 41.032 230.622 41.992 230.686 43.016C230.75 44.04 230.782 45.096 230.782 46.184C231.742 45.416 232.51 44.616 233.086 43.784C233.662 42.888 234.11 42.056 234.43 41.288C234.814 40.52 235.102 39.816 235.294 39.176C235.55 38.472 235.806 37.928 236.062 37.544ZM225.214 45.8C225.214 45.544 225.182 44.968 225.118 44.072C225.118 43.176 225.054 42.12 224.926 40.904C224.862 39.688 224.702 38.44 224.446 37.16C224.254 35.816 223.934 34.6 223.486 33.512C223.102 32.424 222.59 31.528 221.95 30.824C221.31 30.056 220.51 29.672 219.55 29.672C218.59 29.672 217.662 30.056 216.766 30.824C215.87 31.592 215.07 32.584 214.366 33.8C213.662 35.016 213.086 36.392 212.638 37.928C212.254 39.464 212.062 40.968 212.062 42.44C212.062 45 212.574 46.888 213.598 48.104C214.622 49.256 216.382 49.832 218.878 49.832C220.734 49.832 222.238 49.544 223.39 48.968C224.606 48.392 225.214 47.944 225.214 47.624V45.8ZM224.734 53.672C223.966 54.184 222.91 54.568 221.566 54.824C220.222 55.08 219.102 55.208 218.206 55.208C216.478 55.208 215.134 55.08 214.174 54.824C213.278 54.568 212.286 54.056 211.198 53.288L211.102 55.304C211.102 56.008 211.198 56.744 211.39 57.512C211.582 58.28 211.87 58.984 212.254 59.624C212.702 60.264 213.31 60.808 214.078 61.256C214.846 61.64 215.806 61.832 216.958 61.832C218.366 61.832 219.55 61.576 220.51 61.064C221.534 60.488 222.334 59.784 222.91 58.952C223.55 58.12 223.998 57.224 224.254 56.264C224.574 55.304 224.734 54.44 224.734 53.672ZM250.38 44.072C249.42 45.416 248.62 46.92 247.98 48.584C247.404 50.184 246.892 51.88 246.444 53.672C245.996 55.4 245.612 57.16 245.292 58.952C245.036 60.68 244.748 62.344 244.428 63.944C244.3 64.328 243.788 64.584 242.892 64.712C242.06 64.84 241.452 64.904 241.068 64.904C239.916 64.904 238.956 64.84 238.188 64.712C237.484 64.584 236.94 64.296 236.556 63.848C236.172 63.336 235.884 62.6 235.692 61.64C235.5 60.616 235.34 59.272 235.212 57.608L236.46 29.096C236.46 28.264 236.908 27.848 237.804 27.848C238.124 27.848 238.572 27.912 239.148 28.04C239.724 28.104 240.332 28.232 240.972 28.424C241.612 28.616 242.156 28.872 242.604 29.192C243.052 29.448 243.276 29.768 243.276 30.152V49.64C243.34 49.576 243.436 49.32 243.564 48.872C244.012 47.72 244.556 46.312 245.196 44.648C245.836 42.92 246.54 41.288 247.308 39.752C248.076 38.216 248.876 36.904 249.708 35.816C250.604 34.728 251.5 34.184 252.396 34.184C253.548 34.184 254.412 34.472 254.988 35.048C255.628 35.56 256.108 36.232 256.428 37.064C256.748 37.896 256.94 38.792 257.004 39.752C257.068 40.712 257.1 41.64 257.1 42.536C257.1 43.176 257.036 44.232 256.908 45.704C256.78 47.176 256.716 49.384 256.716 52.328C256.716 53.992 256.876 55.496 257.196 56.84C257.516 58.184 258.156 58.856 259.116 58.856C259.82 58.856 260.46 58.536 261.036 57.896C261.612 57.256 262.124 56.456 262.572 55.496C263.084 54.536 263.5 53.512 263.82 52.424C264.14 51.336 264.332 50.312 264.396 49.352C264.46 48.136 264.94 47.528 265.836 47.528C266.412 47.528 266.796 47.72 266.988 48.104C267.18 48.488 267.276 48.936 267.276 49.448V49.64C267.212 50.92 266.956 52.36 266.508 53.96C266.124 55.56 265.516 57.064 264.684 58.472C263.916 59.88 262.892 61.064 261.612 62.024C260.332 62.984 258.764 63.464 256.908 63.464C254.028 63.464 252.172 62.44 251.34 60.392C250.572 58.28 250.188 55.176 250.188 51.08L250.38 44.072ZM293.166 50.216C293.166 51.816 292.878 53.608 292.302 55.592C291.726 57.576 290.83 59.432 289.614 61.16C288.398 62.824 286.83 64.232 284.91 65.384C283.054 66.536 280.814 67.112 278.19 67.112C275.694 67.112 273.582 66.664 271.854 65.768C270.126 64.872 268.686 63.656 267.534 62.12C266.446 60.584 265.646 58.792 265.134 56.744C264.686 54.632 264.462 52.424 264.462 50.12C264.462 47.88 264.718 45.416 265.23 42.728C265.742 40.04 266.542 37.544 267.63 35.24C268.718 32.872 270.094 30.92 271.758 29.384C273.422 27.784 275.438 26.984 277.806 26.984C278.958 26.984 280.046 27.24 281.07 27.752C282.094 28.2 282.99 28.808 283.758 29.576C284.526 30.344 285.134 31.24 285.582 32.264C286.03 33.288 286.286 34.344 286.35 35.432L286.446 36.776C286.446 38.312 286.19 40.008 285.678 41.864C285.166 43.656 284.43 45.352 283.47 46.952C282.51 48.488 281.326 49.8 279.918 50.888C278.51 51.912 276.91 52.424 275.118 52.424C274.798 52.424 274.382 52.392 273.87 52.328C273.422 52.264 272.974 52.168 272.526 52.04V54.824C272.526 55.272 272.654 55.912 272.91 56.744C273.23 57.576 273.678 58.408 274.254 59.24C274.83 60.008 275.566 60.712 276.462 61.352C277.422 61.928 278.574 62.216 279.918 62.216C281.774 62.216 283.278 61.864 284.43 61.16C285.646 60.392 286.638 59.432 287.406 58.28C288.174 57.128 288.75 55.848 289.134 54.44C289.582 52.968 289.934 51.56 290.19 50.216C290.382 49.32 290.574 48.712 290.766 48.392C290.958 48.072 291.278 47.912 291.726 47.912C292.686 47.912 293.166 48.456 293.166 49.544V50.216ZM281.838 35.336C281.838 34.824 281.678 34.28 281.358 33.704C281.102 33.128 280.59 32.84 279.822 32.84C278.67 32.84 277.678 33.448 276.846 34.664C276.014 35.88 275.31 37.288 274.734 38.888C274.222 40.424 273.838 41.928 273.582 43.4C273.326 44.808 273.198 45.736 273.198 46.184V46.472C273.198 47.048 273.23 47.528 273.294 47.912C273.422 48.232 273.774 48.392 274.35 48.392H274.83C276.11 48.392 277.198 47.912 278.094 46.952C278.99 45.992 279.694 44.84 280.206 43.496C280.782 42.152 281.198 40.776 281.454 39.368C281.71 37.96 281.838 36.808 281.838 35.912V35.336Z" fill="#2A2A2A"/>
</svg>
